<svg xmlns="http://www.w3.org/2000/svg" viewBox="0 0 1920 600" width="1920" height="600">
  <defs>
    <linearGradient id="rk-hero-bg" x1="0%" y1="0%" x2="100%" y2="100%">
      <stop offset="0%" stop-color="#030508"/>
      <stop offset="50%" stop-color="#0a0d14"/>
      <stop offset="100%" stop-color="#030508"/>
    </linearGradient>
    <linearGradient id="rk-hero-accent" x1="0%" y1="0%" x2="100%" y2="0%">
      <stop offset="0%" stop-color="#06b6d4" stop-opacity="0.35"/>
      <stop offset="50%" stop-color="#a855f7" stop-opacity="0.25"/>
      <stop offset="100%" stop-color="#ec4899" stop-opacity="0.35"/>
    </linearGradient>
    <radialGradient id="rk-hero-glow" cx="50%" cy="50%">
      <stop offset="0%" stop-color="#06b6d4" stop-opacity="0.25"/>
      <stop offset="100%" stop-color="#06b6d4" stop-opacity="0"/>
    </radialGradient>
  </defs>
  <rect width="1920" height="600" fill="url(#rk-hero-bg)"/>
  <rect width="1920" height="600" fill="url(#rk-hero-accent)"/>
  <ellipse cx="960" cy="300" rx="900" ry="450" fill="url(#rk-hero-glow)"/>
  <g transform="translate(960, 300)">
    <g stroke="#06b6d4" stroke-width="7" stroke-linecap="round" fill="none" opacity="0.85">
      <path d="M0 130V65"/>
      <path d="M0 65L-110 -55"/>
      <path d="M0 65L110 -55"/>
      <path d="M0 110L-85 45"/>
      <path d="M0 110L85 45"/>
    </g>
    <g fill="#06b6d4" opacity="0.85">
      <circle cx="0" cy="130" r="13"/>
      <circle cx="0" cy="65" r="13"/>
      <circle cx="-110" cy="-55" r="11"/>
      <circle cx="110" cy="-55" r="11"/>
      <circle cx="-85" cy="45" r="9"/>
      <circle cx="85" cy="45" r="9"/>
    </g>
  </g>
  <text x="960" y="420" text-anchor="middle" font-family="'Inter', Georgia, serif" font-size="76" font-weight="700" letter-spacing="-0.02em" fill="#f9fafb">ReasonKit</text>
  <text x="960" y="485" text-anchor="middle" font-family="'Inter', -apple-system, BlinkMacSystemFont, 'Segoe UI', sans-serif" font-size="30" font-weight="400" letter-spacing="0.01em" fill="#9ca3af">Turn Prompts into Protocols</text>
  <text x="960" y="535" text-anchor="middle" font-family="'Inter', -apple-system, BlinkMacSystemFont, 'Segoe UI', sans-serif" font-size="20" font-weight="400" fill="#06b6d4">Designed, Not Dreamed</text>
</svg>
