<svg xmlns="http://www.w3.org/2000/svg" viewBox="0 0 1200 630" width="1200" height="630">
  <defs>
    <linearGradient id="rk-og-bg" x1="0%" y1="0%" x2="100%" y2="100%">
      <stop offset="0%" stop-color="#030508"/>
      <stop offset="50%" stop-color="#0a0d14"/>
      <stop offset="100%" stop-color="#030508"/>
    </linearGradient>
    <linearGradient id="rk-og-accent" x1="0%" y1="0%" x2="100%" y2="0%">
      <stop offset="0%" stop-color="#06b6d4" stop-opacity="0.4"/>
      <stop offset="50%" stop-color="#a855f7" stop-opacity="0.3"/>
      <stop offset="100%" stop-color="#ec4899" stop-opacity="0.4"/>
    </linearGradient>
    <radialGradient id="rk-og-glow" cx="50%" cy="40%">
      <stop offset="0%" stop-color="#06b6d4" stop-opacity="0.2"/>
      <stop offset="100%" stop-color="#06b6d4" stop-opacity="0"/>
    </radialGradient>
  </defs>
  <rect width="1200" height="630" fill="url(#rk-og-bg)"/>
  <rect width="1200" height="630" fill="url(#rk-og-accent)"/>
  <ellipse cx="600" cy="252" rx="600" ry="350" fill="url(#rk-og-glow)"/>
  <g transform="translate(600, 250)">
    <g stroke="#06b6d4" stroke-width="9" stroke-linecap="round" fill="none" opacity="0.8">
      <path d="M0 150V75"/>
      <path d="M0 75L-130 -65"/>
      <path d="M0 75L130 -65"/>
      <path d="M0 125L-95 50"/>
      <path d="M0 125L95 50"/>
    </g>
    <g fill="#06b6d4" opacity="0.8">
      <circle cx="0" cy="150" r="15"/>
      <circle cx="0" cy="75" r="15"/>
      <circle cx="-130" cy="-65" r="13"/>
      <circle cx="130" cy="-65" r="13"/>
      <circle cx="-95" cy="50" r="11"/>
      <circle cx="95" cy="50" r="11"/>
    </g>
  </g>
  <text x="600" y="460" text-anchor="middle" font-family="'Inter', Georgia, serif" font-size="74" font-weight="700" letter-spacing="-0.02em" fill="#f9fafb">ReasonKit</text>
  <text x="600" y="530" text-anchor="middle" font-family="'Inter', -apple-system, BlinkMacSystemFont, 'Segoe UI', sans-serif" font-size="34" font-weight="400" letter-spacing="0.01em" fill="#9ca3af">Turn Prompts into Protocols</text>
  <text x="600" y="580" text-anchor="middle" font-family="'Inter', -apple-system, BlinkMacSystemFont, 'Segoe UI', sans-serif" font-size="22" font-weight="400" fill="#06b6d4">reasonkit.sh</text>
</svg>
