<svg xmlns="http://www.w3.org/2000/svg" viewBox="0 0 1200 400" width="1200" height="400">
  <defs>
    <linearGradient id="rk-feature-bg" x1="0%" y1="0%" x2="100%" y2="0%">
      <stop offset="0%" stop-color="#030508"/>
      <stop offset="100%" stop-color="#0a0d14"/>
    </linearGradient>
    <linearGradient id="rk-feature-border" x1="0%" y1="0%" x2="100%" y2="0%">
      <stop offset="0%" stop-color="#06b6d4" stop-opacity="0.35"/>
      <stop offset="50%" stop-color="#a855f7" stop-opacity="0.25"/>
      <stop offset="100%" stop-color="#ec4899" stop-opacity="0.35"/>
    </linearGradient>
  </defs>
  <rect width="1200" height="400" rx="14" fill="url(#rk-feature-bg)"/>
  <rect x="3" y="3" width="1194" height="394" rx="11" fill="none" stroke="url(#rk-feature-border)" stroke-width="2.5"/>
  <g transform="translate(100, 200)">
    <g stroke="#06b6d4" stroke-width="5" stroke-linecap="round" fill="none" opacity="0.75">
      <path d="M0 85V42"/>
      <path d="M0 42L-65 -32"/>
      <path d="M0 42L65 -32"/>
      <path d="M0 70L-48 28"/>
      <path d="M0 70L48 28"/>
    </g>
    <g fill="#06b6d4" opacity="0.75">
      <circle cx="0" cy="85" r="9"/>
      <circle cx="0" cy="42" r="9"/>
      <circle cx="-65" cy="-32" r="7"/>
      <circle cx="65" cy="-32" r="7"/>
      <circle cx="-48" cy="28" r="6"/>
      <circle cx="48" cy="28" r="6"/>
    </g>
  </g>
  <text x="200" y="180" font-family="'Inter', Georgia, serif" font-size="52" font-weight="700" letter-spacing="-0.01em" fill="#f9fafb">Feature Title</text>
  <text x="200" y="235" font-family="'Inter', -apple-system, BlinkMacSystemFont, 'Segoe UI', sans-serif" font-size="20" font-weight="400" line-height="1.6" fill="#9ca3af">Feature description goes here. Explain the value proposition clearly.</text>
  <text x="200" y="280" font-family="'Inter', -apple-system, BlinkMacSystemFont, 'Segoe UI', sans-serif" font-size="16" font-weight="500" fill="#06b6d4">Learn more →</text>
</svg>
