<svg xmlns="http://www.w3.org/2000/svg" viewBox="0 0 1500 500" width="1500" height="500">
  <defs>
    <linearGradient id="rk-twitter-banner-bg" x1="0%" y1="0%" x2="100%" y2="100%">
      <stop offset="0%" stop-color="#030508"/>
      <stop offset="50%" stop-color="#0a0d14"/>
      <stop offset="100%" stop-color="#030508"/>
    </linearGradient>
    <linearGradient id="rk-twitter-banner-accent" x1="0%" y1="0%" x2="100%" y2="0%">
      <stop offset="0%" stop-color="#06b6d4" stop-opacity="0.25"/>
      <stop offset="50%" stop-color="#a855f7" stop-opacity="0.15"/>
      <stop offset="100%" stop-color="#ec4899" stop-opacity="0.25"/>
    </linearGradient>
    <radialGradient id="rk-twitter-glow" cx="50%" cy="30%">
      <stop offset="0%" stop-color="#06b6d4" stop-opacity="0.15"/>
      <stop offset="100%" stop-color="#06b6d4" stop-opacity="0"/>
    </radialGradient>
  </defs>
  <rect width="1500" height="500" fill="url(#rk-twitter-banner-bg)"/>
  <rect width="1500" height="500" fill="url(#rk-twitter-banner-accent)"/>
  <ellipse cx="750" cy="150" rx="600" ry="200" fill="url(#rk-twitter-glow)"/>
  <g transform="translate(120, 250)">
    <g stroke="#06b6d4" stroke-width="5" stroke-linecap="round" fill="none" opacity="0.7">
      <path d="M0 80V40"/>
      <path d="M0 40L-60 -30"/>
      <path d="M0 40L60 -30"/>
      <path d="M0 65L-45 25"/>
      <path d="M0 65L45 25"/>
    </g>
    <g fill="#06b6d4" opacity="0.7">
      <circle cx="0" cy="80" r="8"/>
      <circle cx="0" cy="40" r="8"/>
      <circle cx="-60" cy="-30" r="6"/>
      <circle cx="60" cy="-30" r="6"/>
      <circle cx="-45" cy="25" r="5"/>
      <circle cx="45" cy="25" r="5"/>
    </g>
  </g>
  <text x="200" y="280" font-family="'Inter', Georgia, serif" font-size="52" font-weight="700" fill="#f9fafb">ReasonKit</text>
  <text x="200" y="330" font-family="'Inter', -apple-system, BlinkMacSystemFont, 'Segoe UI', sans-serif" font-size="22" font-weight="400" fill="#9ca3af">Turn Prompts into Protocols</text>
  <text x="200" y="370" font-family="'Inter', -apple-system, BlinkMacSystemFont, 'Segoe UI', sans-serif" font-size="16" font-weight="400" fill="#06b6d4">Designed, Not Dreamed</text>
</svg>
