<svg xmlns="http://www.w3.org/2000/svg" viewBox="0 0 512 512" width="512" height="512" fill="none">
  <!-- ReasonKit Luminous Polyhedron Logo - Primary Icon -->
  <defs>
    <linearGradient id="facetCyan" x1="0%" y1="0%" x2="100%" y2="100%">
      <stop offset="0%" stop-color="#06b6d4" stop-opacity="0.9"/>
      <stop offset="100%" stop-color="#06b6d4" stop-opacity="0.1"/>
    </linearGradient>
    <linearGradient id="facetPurplePink" x1="100%" y1="0%" x2="0%" y2="100%">
      <stop offset="0%" stop-color="#ec4899" stop-opacity="0.9"/>
      <stop offset="100%" stop-color="#a855f7" stop-opacity="0.2"/>
    </linearGradient>
    <linearGradient id="edgeGradient" x1="0%" y1="50%" x2="100%" y2="50%">
      <stop offset="0%" stop-color="#06b6d4"/>
      <stop offset="50%" stop-color="#a855f7"/>
      <stop offset="100%" stop-color="#ec4899"/>
    </linearGradient>
    <filter id="coreGlow" x="-50%" y="-50%" width="200%" height="200%">
      <feGaussianBlur in="SourceGraphic" stdDeviation="12" result="blur"/>
      <feColorMatrix in="blur" type="matrix" values="1 0 0 0 0 0 1 0 0 0 0 0 1 0 0 0 0 0 18 -7" result="glow"/>
      <feMerge><feMergeNode in="glow"/><feMergeNode in="SourceGraphic"/></feMerge>
    </filter>
    <filter id="specularLight" x="-50%" y="-50%" width="200%" height="200%">
      <feGaussianBlur stdDeviation="4" result="blur"/>
      <feMerge><feMergeNode in="blur"/><feMergeNode in="SourceGraphic"/></feMerge>
    </filter>
  </defs>

  <rect width="512" height="512" fill="#030508"/>
  <circle cx="256" cy="256" r="180" fill="url(#edgeGradient)" opacity="0.15" filter="url(#coreGlow)"/>

  <g transform="translate(256, 256)" filter="url(#coreGlow)">
    <path d="M0 0 L-138 -80 L0 -160 Z" fill="#06b6d4" fill-opacity="0.2"/>
    <path d="M0 0 L0 -160 L138 -80 Z" fill="#a855f7" fill-opacity="0.2"/>
    <path d="M0 0 L138 -80 L138 80 Z" fill="url(#facetPurplePink)"/>
    <path d="M0 0 L138 80 L0 160 Z" fill="#a855f7" fill-opacity="0.3"/>
    <path d="M0 0 L0 160 L-138 80 Z" fill="#06b6d4" fill-opacity="0.3"/>
    <path d="M0 0 L-138 80 L-138 -80 Z" fill="url(#facetCyan)"/>
    <path d="M0 0 L0 -160" stroke="#f9fafb" stroke-width="2" stroke-opacity="0.4"/>
    <path d="M0 0 L138 -80" stroke="#ec4899" stroke-width="2" stroke-opacity="0.6"/>
    <path d="M0 0 L138 80" stroke="#a855f7" stroke-width="2" stroke-opacity="0.5"/>
    <path d="M0 0 L0 160" stroke="#f9fafb" stroke-width="2" stroke-opacity="0.3"/>
    <path d="M0 0 L-138 80" stroke="#06b6d4" stroke-width="2" stroke-opacity="0.6"/>
    <path d="M0 0 L-138 -80" stroke="#06b6d4" stroke-width="2" stroke-opacity="0.6"/>
    <path d="M0 -160 L138 -80 L138 80 L0 160 L-138 80 L-138 -80 Z" fill="none" stroke="url(#edgeGradient)" stroke-width="6" stroke-linejoin="round" filter="url(#coreGlow)"/>
    <path d="M0 -160 L138 -80" stroke="#f9fafb" stroke-width="1" stroke-opacity="0.8"/>
    <path d="M-138 -80 L0 -160" stroke="#f9fafb" stroke-width="1" stroke-opacity="0.8"/>
  </g>

  <g transform="translate(256, 256)">
    <circle cx="40" cy="-20" r="40" fill="white" opacity="0.3" filter="url(#coreGlow)"/>
    <circle cx="40" cy="-20" r="10" fill="white" filter="url(#specularLight)"/>
    <path d="M40 -40 L40 0 M20 -20 L60 -20" stroke="white" stroke-width="2" opacity="0.8" filter="url(#specularLight)"/>
  </g>
</svg>
