<svg xmlns="http://www.w3.org/2000/svg" viewBox="0 0 1200 630" fill="none">
  <defs>
    <linearGradient id="heroGrad" x1="0%" y1="0%" x2="100%" y2="100%">
      <stop offset="0%" stop-color="#06b6d4"/>
      <stop offset="50%" stop-color="#a855f7"/>
      <stop offset="100%" stop-color="#ec4899"/>
    </linearGradient>
    <linearGradient id="textGrad" x1="0%" y1="0%" x2="100%" y2="0%">
      <stop offset="0%" stop-color="#06b6d4"/>
      <stop offset="50%" stop-color="#a855f7"/>
      <stop offset="100%" stop-color="#ec4899"/>
    </linearGradient>
    <filter id="glow" x="-50%" y="-50%" width="200%" height="200%">
      <feGaussianBlur stdDeviation="20" result="blur"/>
      <feFlood flood-color="#06b6d4" flood-opacity="0.4"/>
      <feComposite in2="blur" operator="in"/>
      <feMerge><feMergeNode/><feMergeNode in="SourceGraphic"/></feMerge>
    </filter>
    <filter id="textGlow" x="-20%" y="-20%" width="140%" height="140%">
      <feGaussianBlur stdDeviation="3" result="blur"/>
      <feFlood flood-color="#06b6d4" flood-opacity="0.5"/>
      <feComposite in2="blur" operator="in"/>
      <feMerge><feMergeNode/><feMergeNode in="SourceGraphic"/></feMerge>
    </filter>
  </defs>

  <!-- Background -->
  <rect width="1200" height="630" fill="#030508"/>

  <!-- Ambient orbs -->
  <ellipse cx="200" cy="150" rx="300" ry="200" fill="#06b6d4" opacity="0.08" filter="url(#glow)"/>
  <ellipse cx="1000" cy="500" rx="250" ry="180" fill="#a855f7" opacity="0.06"/>
  <ellipse cx="600" cy="400" rx="400" ry="250" fill="#ec4899" opacity="0.04"/>

  <!-- Tree of Thoughts pattern - abstract neural network -->
  <g opacity="0.15" stroke="#06b6d4" stroke-width="1">
    <!-- Root node -->
    <circle cx="600" cy="550" r="8" fill="#06b6d4"/>
    <!-- Level 1 -->
    <line x1="600" y1="550" x2="400" y2="450"/>
    <line x1="600" y1="550" x2="600" y2="430"/>
    <line x1="600" y1="550" x2="800" y2="450"/>
    <circle cx="400" cy="450" r="6" fill="#06b6d4"/>
    <circle cx="600" cy="430" r="6" fill="#a855f7"/>
    <circle cx="800" cy="450" r="6" fill="#06b6d4"/>
    <!-- Level 2 -->
    <line x1="400" y1="450" x2="300" y2="380"/>
    <line x1="400" y1="450" x2="450" y2="370"/>
    <line x1="600" y1="430" x2="550" y2="360"/>
    <line x1="600" y1="430" x2="650" y2="360"/>
    <line x1="800" y1="450" x2="750" y2="370"/>
    <line x1="800" y1="450" x2="900" y2="380"/>
    <circle cx="300" cy="380" r="4" fill="#a855f7"/>
    <circle cx="450" cy="370" r="4" fill="#ec4899"/>
    <circle cx="550" cy="360" r="4" fill="#06b6d4"/>
    <circle cx="650" cy="360" r="4" fill="#ec4899"/>
    <circle cx="750" cy="370" r="4" fill="#a855f7"/>
    <circle cx="900" cy="380" r="4" fill="#06b6d4"/>
    <!-- Level 3 (leaves) -->
    <circle cx="250" cy="340" r="3" fill="#10b981"/>
    <circle cx="340" cy="330" r="3" fill="#fbbf24"/>
    <circle cx="420" cy="320" r="3" fill="#f97316"/>
    <circle cx="500" cy="310" r="3" fill="#10b981"/>
    <circle cx="580" cy="300" r="3" fill="#fbbf24"/>
    <circle cx="620" cy="300" r="3" fill="#f97316"/>
    <circle cx="700" cy="310" r="3" fill="#10b981"/>
    <circle cx="780" cy="320" r="3" fill="#fbbf24"/>
    <circle cx="860" cy="330" r="3" fill="#f97316"/>
    <circle cx="950" cy="340" r="3" fill="#10b981"/>
    <line x1="300" y1="380" x2="250" y2="340" stroke-opacity="0.5"/>
    <line x1="300" y1="380" x2="340" y2="330" stroke-opacity="0.5"/>
    <line x1="450" y1="370" x2="420" y2="320" stroke-opacity="0.5"/>
    <line x1="450" y1="370" x2="500" y2="310" stroke-opacity="0.5"/>
    <line x1="550" y1="360" x2="580" y2="300" stroke-opacity="0.5"/>
    <line x1="650" y1="360" x2="620" y2="300" stroke-opacity="0.5"/>
    <line x1="650" y1="360" x2="700" y2="310" stroke-opacity="0.5"/>
    <line x1="750" y1="370" x2="780" y2="320" stroke-opacity="0.5"/>
    <line x1="900" y1="380" x2="860" y2="330" stroke-opacity="0.5"/>
    <line x1="900" y1="380" x2="950" y2="340" stroke-opacity="0.5"/>
  </g>

  <!-- Main title -->
  <text x="600" y="140" text-anchor="middle" fill="url(#textGrad)" font-family="Inter, sans-serif" font-size="72" font-weight="800" filter="url(#textGlow)">reasonkit-core</text>

  <!-- Tagline -->
  <text x="600" y="190" text-anchor="middle" fill="#f9fafb" font-family="Inter, sans-serif" font-size="24" font-weight="400">Structured Prompt Engineering Framework</text>

  <!-- Subtitle -->
  <text x="600" y="230" text-anchor="middle" fill="#9ca3af" font-family="Inter, sans-serif" font-size="18">"See How Your AI Thinks"</text>

  <!-- Feature badges -->
  <g transform="translate(280, 270)">
    <rect x="0" y="0" width="140" height="36" rx="18" fill="rgba(6,182,212,0.15)" stroke="#06b6d4" stroke-width="1"/>
    <text x="70" y="23" text-anchor="middle" fill="#06b6d4" font-family="Inter, sans-serif" font-size="13" font-weight="600">5 ThinkTools</text>
  </g>

  <g transform="translate(440, 270)">
    <rect x="0" y="0" width="140" height="36" rx="18" fill="rgba(168,85,247,0.15)" stroke="#a855f7" stroke-width="1"/>
    <text x="70" y="23" text-anchor="middle" fill="#a855f7" font-family="Inter, sans-serif" font-size="13" font-weight="600">4 Profiles</text>
  </g>

  <g transform="translate(600, 270)">
    <rect x="0" y="0" width="140" height="36" rx="18" fill="rgba(16,185,129,0.15)" stroke="#10b981" stroke-width="1"/>
    <text x="70" y="23" text-anchor="middle" fill="#10b981" font-family="Inter, sans-serif" font-size="13" font-weight="600">Full Tracing</text>
  </g>

  <g transform="translate(760, 270)">
    <rect x="0" y="0" width="140" height="36" rx="18" fill="rgba(249,115,22,0.15)" stroke="#f97316" stroke-width="1"/>
    <text x="70" y="23" text-anchor="middle" fill="#f97316" font-family="Inter, sans-serif" font-size="13" font-weight="600">Apache 2.0</text>
  </g>

  <!-- ThinkTool icons row -->
  <g transform="translate(250, 350)">
    <g transform="translate(0, 0)">
      <circle cx="35" cy="35" r="35" fill="rgba(6,182,212,0.1)" stroke="#06b6d4" stroke-width="2"/>
      <text x="35" y="45" text-anchor="middle" font-size="32">💡</text>
    </g>
    <g transform="translate(140, 0)">
      <circle cx="35" cy="35" r="35" fill="rgba(168,85,247,0.1)" stroke="#a855f7" stroke-width="2"/>
      <text x="35" y="45" text-anchor="middle" font-size="32">⚡</text>
    </g>
    <g transform="translate(280, 0)">
      <circle cx="35" cy="35" r="35" fill="rgba(16,185,129,0.1)" stroke="#10b981" stroke-width="2"/>
      <text x="35" y="45" text-anchor="middle" font-size="32">🪨</text>
    </g>
    <g transform="translate(420, 0)">
      <circle cx="35" cy="35" r="35" fill="rgba(251,191,36,0.1)" stroke="#fbbf24" stroke-width="2"/>
      <text x="35" y="45" text-anchor="middle" font-size="32">🛡️</text>
    </g>
    <g transform="translate(560, 0)">
      <circle cx="35" cy="35" r="35" fill="rgba(249,115,22,0.1)" stroke="#f97316" stroke-width="2"/>
      <text x="35" y="45" text-anchor="middle" font-size="32">🔥</text>
    </g>
  </g>

  <!-- Labels under icons -->
  <text x="285" y="445" text-anchor="middle" fill="#06b6d4" font-family="Inter, sans-serif" font-size="11" font-weight="600">GigaThink</text>
  <text x="425" y="445" text-anchor="middle" fill="#a855f7" font-family="Inter, sans-serif" font-size="11" font-weight="600">LaserLogic</text>
  <text x="565" y="445" text-anchor="middle" fill="#10b981" font-family="Inter, sans-serif" font-size="11" font-weight="600">BedRock</text>
  <text x="705" y="445" text-anchor="middle" fill="#fbbf24" font-family="Inter, sans-serif" font-size="11" font-weight="600">ProofGuard</text>
  <text x="845" y="445" text-anchor="middle" fill="#f97316" font-family="Inter, sans-serif" font-size="11" font-weight="600">BrutalHonesty</text>

  <!-- Install command -->
  <g transform="translate(350, 480)">
    <rect x="0" y="0" width="500" height="50" rx="12" fill="#0a0d14" stroke="rgba(6,182,212,0.3)" stroke-width="1"/>
    <text x="25" y="32" fill="#6b7280" font-family="JetBrains Mono, monospace" font-size="14">$</text>
    <text x="50" y="32" fill="#f9fafb" font-family="JetBrains Mono, monospace" font-size="14">cargo install reasonkit</text>
    <rect x="380" y="10" width="100" height="30" rx="8" fill="url(#heroGrad)" opacity="0.8"/>
    <text x="430" y="30" text-anchor="middle" fill="#030508" font-family="Inter, sans-serif" font-size="12" font-weight="600">COPY</text>
  </g>

  <!-- Bottom tagline -->
  <text x="600" y="570" text-anchor="middle" fill="#6b7280" font-family="Inter, sans-serif" font-size="14">Turn Prompts into Protocols</text>

  <!-- Website -->
  <text x="600" y="600" text-anchor="middle" fill="#4b5563" font-family="Inter, sans-serif" font-size="13">reasonkit.sh</text>
</svg>
