<svg xmlns="http://www.w3.org/2000/svg" viewBox="0 0 2100 900" width="2100" height="900">
  <defs>
    <!-- ============================================================
         COLOR SYSTEM - Aligned with Landing Page (main.css)
         ============================================================
         --cyan: #06b6d4
         --purple: #a855f7
         --pink: #ec4899
         --green: #10b981
         --orange: #f97316
         --yellow: #fbbf24
         --bg-void: #030508
         --bg-deep: #0a0d14
         --text-primary: #f9fafb
         --text-secondary: #9ca3af
         --text-muted: #6b7280
         ============================================================ -->

    <!-- Background gradient -->
    <radialGradient id="voidGlow" cx="50%" cy="50%" r="65%">
      <stop offset="0%" stop-color="#0a0d14"/>
      <stop offset="50%" stop-color="#050709"/>
      <stop offset="100%" stop-color="#030508"/>
    </radialGradient>

    <!-- Core crystal gradient (cyan primary) -->
    <linearGradient id="crystalGrad" x1="0%" y1="0%" x2="100%" y2="100%">
      <stop offset="0%" stop-color="#06b6d4"/>
      <stop offset="50%" stop-color="#0891b2"/>
      <stop offset="100%" stop-color="#0e7490"/>
    </linearGradient>

    <!-- Hero gradient (matching landing page) -->
    <linearGradient id="heroGrad" x1="0%" y1="0%" x2="100%" y2="100%">
      <stop offset="0%" stop-color="#06b6d4"/>
      <stop offset="50%" stop-color="#a855f7"/>
      <stop offset="100%" stop-color="#ec4899"/>
    </linearGradient>

    <!-- Module gradients (aligned with landing page colors) -->
    <linearGradient id="cyanGrad" x1="0%" y1="0%" x2="100%" y2="100%">
      <stop offset="0%" stop-color="#06b6d4"/>
      <stop offset="100%" stop-color="#0891b2"/>
    </linearGradient>

    <linearGradient id="greenGrad" x1="0%" y1="0%" x2="100%" y2="100%">
      <stop offset="0%" stop-color="#10b981"/>
      <stop offset="100%" stop-color="#059669"/>
    </linearGradient>

    <linearGradient id="yellowGrad" x1="0%" y1="0%" x2="100%" y2="100%">
      <stop offset="0%" stop-color="#fbbf24"/>
      <stop offset="100%" stop-color="#f59e0b"/>
    </linearGradient>

    <linearGradient id="purpleGrad" x1="0%" y1="0%" x2="100%" y2="100%">
      <stop offset="0%" stop-color="#a855f7"/>
      <stop offset="100%" stop-color="#9333ea"/>
    </linearGradient>

    <linearGradient id="orangeGrad" x1="0%" y1="0%" x2="100%" y2="100%">
      <stop offset="0%" stop-color="#f97316"/>
      <stop offset="100%" stop-color="#ea580c"/>
    </linearGradient>

    <!-- God ray gradient -->
    <linearGradient id="godRay" x1="50%" y1="0%" x2="50%" y2="100%">
      <stop offset="0%" stop-color="#06b6d4" stop-opacity="0.35"/>
      <stop offset="50%" stop-color="#06b6d4" stop-opacity="0.08"/>
      <stop offset="100%" stop-color="#06b6d4" stop-opacity="0"/>
    </linearGradient>

    <!-- Circuit pattern (landing page grid style) -->
    <pattern id="circuitBg" x="0" y="0" width="60" height="60" patternUnits="userSpaceOnUse">
      <g stroke="#06b6d4" stroke-width="0.5" fill="none" opacity="0.03">
        <path d="M0 30 L60 30"/>
        <path d="M30 0 L30 60"/>
      </g>
    </pattern>

    <!-- Glow filters -->
    <filter id="cyanGlow" x="-50%" y="-50%" width="200%" height="200%">
      <feGaussianBlur in="SourceGraphic" stdDeviation="4" result="blur"/>
      <feMerge>
        <feMergeNode in="blur"/>
        <feMergeNode in="SourceGraphic"/>
      </feMerge>
    </filter>

    <filter id="strongGlow" x="-100%" y="-100%" width="300%" height="300%">
      <feGaussianBlur in="SourceGraphic" stdDeviation="6" result="blur"/>
      <feMerge>
        <feMergeNode in="blur"/>
        <feMergeNode in="blur"/>
        <feMergeNode in="SourceGraphic"/>
      </feMerge>
    </filter>

    <filter id="softGlow" x="-50%" y="-50%" width="200%" height="200%">
      <feGaussianBlur in="SourceGraphic" stdDeviation="2" result="blur"/>
      <feMerge>
        <feMergeNode in="blur"/>
        <feMergeNode in="SourceGraphic"/>
      </feMerge>
    </filter>
  </defs>

  <!-- Background -->
  <rect width="2100" height="900" fill="url(#voidGlow)"/>
  <rect width="2100" height="900" fill="url(#circuitBg)"/>

  <!-- Ambient glow orbs (matching landing page style) -->
  <ellipse cx="400" cy="200" rx="300" ry="300" fill="#06b6d4" opacity="0.08" filter="url(#strongGlow)"/>
  <ellipse cx="1700" cy="600" rx="250" ry="250" fill="#a855f7" opacity="0.06" filter="url(#strongGlow)"/>
  <ellipse cx="1050" cy="800" rx="200" ry="200" fill="#ec4899" opacity="0.05" filter="url(#strongGlow)"/>

  <!-- God rays from center -->
  <g opacity="0.25">
    <polygon points="1050,450 920,0 945,0" fill="url(#godRay)"/>
    <polygon points="1050,450 1020,0 1045,0" fill="url(#godRay)"/>
    <polygon points="1050,450 1120,0 1145,0" fill="url(#godRay)"/>
    <polygon points="1050,450 1155,0 1180,0" fill="url(#godRay)"/>
    <polygon points="1050,450 920,900 945,900" fill="url(#godRay)" opacity="0.4"/>
    <polygon points="1050,450 1120,900 1145,900" fill="url(#godRay)" opacity="0.4"/>
  </g>

  <!-- === CHAOTIC INPUT (Left side) === -->
  <g transform="translate(80, 340)" opacity="0.65">
    <text x="0" y="0" fill="#6b7280" font-family="'Inter', -apple-system, sans-serif" font-size="11" opacity="0.5" transform="rotate(-10)">unstructured prompts...</text>
    <text x="15" y="32" fill="#6b7280" font-family="'Inter', -apple-system, sans-serif" font-size="9" opacity="0.45" transform="rotate(6)">ambiguous intent</text>
    <text x="-5" y="64" fill="#6b7280" font-family="'Inter', -apple-system, sans-serif" font-size="10" opacity="0.4" transform="rotate(-4)">raw LLM chaos</text>
    <text x="25" y="96" fill="#6b7280" font-family="'Inter', -apple-system, sans-serif" font-size="8" opacity="0.45" transform="rotate(12)">no validation</text>
    <text x="5" y="128" fill="#6b7280" font-family="'Inter', -apple-system, sans-serif" font-size="10" opacity="0.35" transform="rotate(-6)">hallucinations?</text>
    <text x="35" y="160" fill="#f97316" font-family="'JetBrains Mono', 'SF Mono', monospace" font-size="9" opacity="0.5" transform="rotate(2)">ERROR: undefined</text>

    <!-- Chaotic flow lines -->
    <g stroke="#6b7280" stroke-width="1" fill="none" opacity="0.3">
      <path d="M180 10 Q220 35 265 25" stroke-dasharray="4,4"/>
      <path d="M165 55 Q205 65 255 50" stroke-dasharray="3,5"/>
      <path d="M175 105 Q215 95 260 100" stroke-dasharray="5,3"/>
      <path d="M155 150 Q205 160 265 140" stroke-dasharray="4,4"/>
    </g>
  </g>

  <!-- === CENTRAL CRYSTALLINE CORE === -->
  <g transform="translate(1050, 450)">
    <!-- Outer rings -->
    <circle cx="0" cy="0" r="200" fill="none" stroke="#06b6d4" stroke-width="1" opacity="0.12"/>
    <circle cx="0" cy="0" r="175" fill="none" stroke="#06b6d4" stroke-width="0.5" opacity="0.08"/>
    <circle cx="0" cy="0" r="225" fill="none" stroke="#06b6d4" stroke-width="0.5" opacity="0.06"/>

    <!-- Central polyhedron -->
    <g filter="url(#strongGlow)">
      <!-- Inner glow -->
      <circle cx="0" cy="0" r="55" fill="#06b6d4" opacity="0.12"/>
      <circle cx="0" cy="0" r="35" fill="#06b6d4" opacity="0.2"/>
      <circle cx="0" cy="0" r="18" fill="#0891b2" opacity="0.35"/>

      <!-- Crystal structure -->
      <g stroke="url(#crystalGrad)" stroke-width="2" fill="none" opacity="0.9">
        <polygon points="0,-95 82,-48 82,48 0,95 -82,48 -82,-48"/>
        <polygon points="0,-60 52,-30 52,30 0,60 -52,30 -52,-30"/>
        <line x1="0" y1="-95" x2="0" y2="95"/>
        <line x1="-82" y1="-48" x2="82" y2="48"/>
        <line x1="82" y1="-48" x2="-82" y2="48"/>
        <line x1="0" y1="-95" x2="52" y2="-30"/>
        <line x1="0" y1="-95" x2="-52" y2="-30"/>
        <line x1="82" y1="-48" x2="52" y2="30"/>
        <line x1="82" y1="48" x2="0" y2="60"/>
        <line x1="-82" y1="48" x2="0" y2="60"/>
        <line x1="-82" y1="-48" x2="-52" y2="30"/>
      </g>

      <!-- Vertex nodes -->
      <g fill="#0891b2">
        <circle cx="0" cy="-95" r="4.5"/>
        <circle cx="82" cy="-48" r="4.5"/>
        <circle cx="82" cy="48" r="4.5"/>
        <circle cx="0" cy="95" r="4.5"/>
        <circle cx="-82" cy="48" r="4.5"/>
        <circle cx="-82" cy="-48" r="4.5"/>
        <circle cx="0" cy="0" r="7" fill="#06b6d4"/>
      </g>
    </g>

    <!-- Orbiting particles -->
    <g fill="#06b6d4" opacity="0.5">
      <circle cx="-125" cy="-15" r="2"><animate attributeName="opacity" values="0.5;0.2;0.5" dur="2.5s" repeatCount="indefinite"/></circle>
      <circle cx="135" cy="25" r="1.5"><animate attributeName="opacity" values="0.3;0.7;0.3" dur="1.8s" repeatCount="indefinite"/></circle>
      <circle cx="-105" cy="75" r="1.8"><animate attributeName="opacity" values="0.4;0.15;0.4" dur="2.8s" repeatCount="indefinite"/></circle>
      <circle cx="115" cy="-65" r="1.6"><animate attributeName="opacity" values="0.25;0.6;0.25" dur="2s" repeatCount="indefinite"/></circle>
      <circle cx="-145" cy="-55" r="1.4"><animate attributeName="opacity" values="0.5;0.25;0.5" dur="2.3s" repeatCount="indefinite"/></circle>
      <circle cx="150" cy="-25" r="1.2"><animate attributeName="opacity" values="0.35;0.75;0.35" dur="1.7s" repeatCount="indefinite"/></circle>
    </g>
  </g>

  <!-- === MODULE 1: GIGATHINK (Top-left) === -->
  <g transform="translate(680, 215)">
    <line x1="0" y1="0" x2="280" y2="185" stroke="#06b6d4" stroke-width="1" opacity="0.35" stroke-dasharray="6,3"/>

    <g filter="url(#cyanGlow)">
      <circle cx="0" cy="0" r="42" fill="none" stroke="url(#cyanGrad)" stroke-width="2" opacity="0.8"/>
      <!-- Starburst rays -->
      <g stroke="#06b6d4" stroke-width="1.5" opacity="0.65">
        <line x1="0" y1="-42" x2="0" y2="-70"/>
        <line x1="30" y1="-30" x2="48" y2="-48"/>
        <line x1="42" y1="0" x2="70" y2="0"/>
        <line x1="30" y1="30" x2="48" y2="48"/>
        <line x1="0" y1="42" x2="0" y2="65"/>
        <line x1="-30" y1="30" x2="-48" y2="48"/>
        <line x1="-42" y1="0" x2="-70" y2="0"/>
        <line x1="-30" y1="-30" x2="-48" y2="-48"/>
      </g>
      <!-- Neural branches -->
      <g stroke="#06b6d4" stroke-width="1" opacity="0.4">
        <path d="M0 -70 Q-25 -85 -55 -75"/>
        <path d="M0 -70 Q25 -90 50 -80"/>
        <path d="M70 0 Q85 -18 80 -42"/>
        <path d="M70 0 Q90 22 85 48"/>
        <path d="M-70 0 Q-85 -22 -82 -48"/>
        <path d="M-70 0 Q-90 18 -80 45"/>
      </g>
      <!-- Particle blur -->
      <g fill="#06b6d4" opacity="0.5">
        <ellipse cx="-52" cy="-80" rx="7" ry="2"/>
        <ellipse cx="54" cy="-82" rx="6" ry="2"/>
        <ellipse cx="86" cy="-40" rx="6" ry="2"/>
        <ellipse cx="88" cy="50" rx="5" ry="2"/>
        <ellipse cx="-84" cy="47" rx="6" ry="2"/>
        <ellipse cx="-86" cy="-46" rx="5" ry="2"/>
      </g>
      <circle cx="0" cy="0" r="11" fill="#06b6d4"/>
    </g>
    <text x="0" y="98" fill="#06b6d4" font-family="'Inter', -apple-system, sans-serif" font-size="13" font-weight="600" text-anchor="middle" letter-spacing="1.5">GIGATHINK</text>
    <text x="0" y="115" fill="#9ca3af" font-family="'JetBrains Mono', 'SF Mono', monospace" font-size="9" text-anchor="middle">DIVERGENT EXPLORATION</text>
  </g>

  <!-- === MODULE 2: LASERLOGIC (Top-right) === -->
  <g transform="translate(1420, 215)">
    <line x1="0" y1="0" x2="-280" y2="185" stroke="#10b981" stroke-width="1" opacity="0.35" stroke-dasharray="6,3"/>

    <g filter="url(#softGlow)">
      <!-- Main laser beam -->
      <line x1="-75" y1="0" x2="75" y2="0" stroke="#10b981" stroke-width="2.5" opacity="0.85"/>

      <!-- Prism -->
      <polygon points="-18,-32 18,-32 0,18" fill="none" stroke="#10b981" stroke-width="2" opacity="0.75"/>

      <!-- Refracted decision tree -->
      <g stroke="#10b981" stroke-width="1.5" opacity="0.65">
        <line x1="0" y1="18" x2="-38" y2="65"/>
        <line x1="0" y1="18" x2="0" y2="70"/>
        <line x1="0" y1="18" x2="38" y2="65"/>
        <line x1="-38" y1="65" x2="-52" y2="85"/>
        <line x1="-38" y1="65" x2="-24" y2="85"/>
        <line x1="38" y1="65" x2="24" y2="85"/>
        <line x1="38" y1="65" x2="52" y2="85"/>
      </g>

      <!-- Terminal nodes -->
      <g fill="#10b981">
        <rect x="-57" y="83" width="10" height="10" rx="1"/>
        <rect x="-29" y="83" width="10" height="10" rx="1"/>
        <rect x="-5" y="68" width="10" height="10" rx="1"/>
        <rect x="19" y="83" width="10" height="10" rx="1"/>
        <rect x="47" y="83" width="10" height="10" rx="1"/>
      </g>
    </g>
    <text x="0" y="120" fill="#10b981" font-family="'Inter', -apple-system, sans-serif" font-size="13" font-weight="600" text-anchor="middle" letter-spacing="1.5">LASERLOGIC</text>
    <text x="0" y="137" fill="#9ca3af" font-family="'JetBrains Mono', 'SF Mono', monospace" font-size="9" text-anchor="middle">CONVERGENT PRECISION</text>
  </g>

  <!-- === MODULE 3: BEDROCK (Bottom-center) === -->
  <g transform="translate(1050, 715)">
    <line x1="0" y1="0" x2="0" y2="-165" stroke="#fbbf24" stroke-width="1" opacity="0.35" stroke-dasharray="6,3"/>

    <g filter="url(#softGlow)">
      <!-- Hexagonal blocks -->
      <g transform="translate(-55, 0)">
        <polygon points="28,0 56,16 56,48 28,64 0,48 0,16" fill="#fbbf24" fill-opacity="0.12" stroke="#fbbf24" stroke-width="1.5"/>
      </g>
      <g transform="translate(0, 0)">
        <polygon points="28,0 56,16 56,48 28,64 0,48 0,16" fill="#fbbf24" fill-opacity="0.18" stroke="#fbbf24" stroke-width="1.5"/>
      </g>
      <g transform="translate(55, 0)">
        <polygon points="28,0 56,16 56,48 28,64 0,48 0,16" fill="#fbbf24" fill-opacity="0.12" stroke="#fbbf24" stroke-width="1.5"/>
      </g>
      <g transform="translate(-27, -48)">
        <polygon points="28,0 56,16 56,48 28,64 0,48 0,16" fill="#fbbf24" fill-opacity="0.22" stroke="#fbbf24" stroke-width="1.5"/>
      </g>
      <g transform="translate(27, -48)">
        <polygon points="28,0 56,16 56,48 28,64 0,48 0,16" fill="#fbbf24" fill-opacity="0.22" stroke="#fbbf24" stroke-width="1.5"/>
      </g>
      <g transform="translate(0, -82)">
        <polygon points="28,0 56,16 56,48 28,64 0,48 0,16" fill="#fbbf24" fill-opacity="0.28" stroke="#fbbf24" stroke-width="2"/>
      </g>
    </g>
    <text x="28" y="90" fill="#fbbf24" font-family="'Inter', -apple-system, sans-serif" font-size="13" font-weight="600" text-anchor="middle" letter-spacing="1.5">BEDROCK</text>
    <text x="28" y="107" fill="#9ca3af" font-family="'JetBrains Mono', 'SF Mono', monospace" font-size="9" text-anchor="middle">FOUNDATIONAL AXIOMS</text>
  </g>

  <!-- === MODULE 4: PROOFGUARD (Left) === -->
  <g transform="translate(750, 495)">
    <line x1="0" y1="0" x2="210" y2="-45" stroke="#a855f7" stroke-width="1" opacity="0.35" stroke-dasharray="6,3"/>

    <g filter="url(#softGlow)">
      <!-- Hexagonal shield -->
      <polygon points="0,-52 45,-26 45,26 0,52 -45,26 -45,-26" fill="#a855f7" fill-opacity="0.1" stroke="url(#purpleGrad)" stroke-width="2.5"/>
      <polygon points="0,-35 30,-18 30,18 0,35 -30,18 -30,-18" fill="none" stroke="#a855f7" stroke-width="1" opacity="0.45"/>

      <!-- Checkmark -->
      <g stroke="#10b981" stroke-width="2.5" stroke-linecap="round" fill="none">
        <path d="M-11 0 L-4 7 L11 -7"/>
      </g>

      <!-- Validation dots -->
      <g fill="#10b981" opacity="0.65">
        <circle cx="-22" cy="-14" r="3"/>
        <circle cx="22" cy="-14" r="3"/>
        <circle cx="0" cy="22" r="3"/>
      </g>
    </g>
    <text x="0" y="75" fill="#a855f7" font-family="'Inter', -apple-system, sans-serif" font-size="13" font-weight="600" text-anchor="middle" letter-spacing="1.5">PROOFGUARD</text>
    <text x="0" y="92" fill="#9ca3af" font-family="'JetBrains Mono', 'SF Mono', monospace" font-size="9" text-anchor="middle">VALIDATION ENGINE</text>
  </g>

  <!-- === MODULE 5: BRUTALHONESTY (Right) === -->
  <g transform="translate(1350, 495)">
    <line x1="0" y1="0" x2="-210" y2="-45" stroke="#f97316" stroke-width="1" opacity="0.35" stroke-dasharray="6,3"/>

    <g filter="url(#softGlow)">
      <!-- Alert threads (input) -->
      <g stroke="#f97316" stroke-width="1" opacity="0.55">
        <path d="M-75 -28 Q-48 -22 -28 -9"/>
        <path d="M-70 0 Q-48 4 -28 0"/>
        <path d="M-75 28 Q-48 22 -28 9"/>
        <path d="M-80 -46 Q-52 -38 -28 -18"/>
        <path d="M-80 46 Q-52 38 -28 18"/>
      </g>

      <!-- Filter nodes -->
      <g>
        <circle cx="-28" cy="-9" r="7" fill="#f97316" fill-opacity="0.25" stroke="#f97316" stroke-width="1.5"/>
        <circle cx="-28" cy="9" r="7" fill="#f97316" fill-opacity="0.25" stroke="#f97316" stroke-width="1.5"/>
        <circle cx="0" cy="0" r="11" fill="#f97316" fill-opacity="0.18" stroke="#f97316" stroke-width="2"/>
      </g>

      <!-- Clean output -->
      <g stroke="#10b981" stroke-width="1.5" opacity="0.75">
        <path d="M28 0 L65 0"/>
        <circle cx="70" cy="0" r="5" fill="#10b981"/>
      </g>

      <!-- Filtered anomalies -->
      <g stroke="#f97316" stroke-width="1" opacity="0.4" stroke-dasharray="3,3">
        <path d="M0 11 Q8 38 4 58"/>
        <path d="M-9 14 Q-14 42 -18 62"/>
      </g>
      <text x="-4" y="76" fill="#f97316" font-family="'JetBrains Mono', 'SF Mono', monospace" font-size="8" opacity="0.55">FILTERED</text>
    </g>
    <text x="0" y="100" fill="#f97316" font-family="'Inter', -apple-system, sans-serif" font-size="13" font-weight="600" text-anchor="middle" letter-spacing="1.5">BRUTALHONESTY</text>
    <text x="0" y="117" fill="#9ca3af" font-family="'JetBrains Mono', 'SF Mono', monospace" font-size="9" text-anchor="middle">ANOMALY FILTER</text>
  </g>

  <!-- === CLEAN OUTPUT (Right side) === -->
  <g transform="translate(1820, 340)">
    <g stroke="#10b981" stroke-width="1.5" opacity="0.55">
      <line x1="0" y1="0" x2="145" y2="-28"/>
      <line x1="0" y1="38" x2="145" y2="28"/>
      <line x1="0" y1="76" x2="145" y2="85"/>
      <line x1="0" y1="114" x2="145" y2="125"/>
      <line x1="0" y1="152" x2="145" y2="172"/>
    </g>

    <g fill="#10b981" opacity="0.35">
      <rect x="155" y="-38" width="58" height="11" rx="2"/>
      <rect x="155" y="22" width="75" height="11" rx="2"/>
      <rect x="155" y="79" width="65" height="11" rx="2"/>
      <rect x="155" y="119" width="52" height="11" rx="2"/>
      <rect x="155" y="166" width="70" height="11" rx="2"/>
    </g>

    <text x="95" y="210" fill="#10b981" font-family="'JetBrains Mono', 'SF Mono', monospace" font-size="10" text-anchor="middle" opacity="0.65">VALIDATED OUTPUT</text>
  </g>

  <!-- === HUD: Top-left status panel === -->
  <g transform="translate(40, 40)">
    <rect x="0" y="0" width="270" height="115" fill="#0a0d14" fill-opacity="0.85" stroke="#06b6d4" stroke-width="1" stroke-opacity="0.25" rx="4"/>
    <!-- Corner brackets -->
    <path d="M0 0 L0 14 M0 0 L14 0" stroke="#06b6d4" stroke-width="2" fill="none"/>
    <path d="M270 0 L270 14 M270 0 L256 0" stroke="#06b6d4" stroke-width="2" fill="none"/>
    <path d="M0 115 L0 101 M0 115 L14 115" stroke="#06b6d4" stroke-width="2" fill="none"/>
    <path d="M270 115 L270 101 M270 115 L256 115" stroke="#06b6d4" stroke-width="2" fill="none"/>

    <text x="14" y="26" fill="#9ca3af" font-family="'JetBrains Mono', 'SF Mono', monospace" font-size="9" letter-spacing="1.5">SYSTEM STATUS</text>
    <line x1="14" y1="34" x2="256" y2="34" stroke="#06b6d4" stroke-width="0.5" opacity="0.25"/>

    <text x="14" y="54" fill="#f9fafb" font-family="'Inter', -apple-system, sans-serif" font-size="17" font-weight="700">REASONKIT CORE</text>
    <text x="200" y="54" fill="#10b981" font-family="'JetBrains Mono', 'SF Mono', monospace" font-size="11" font-weight="600">v1.0.0</text>

    <text x="14" y="78" fill="#9ca3af" font-family="'Inter', -apple-system, sans-serif" font-size="10">INITIAL RELEASE</text>
    <text x="14" y="98" fill="#fbbf24" font-family="'JetBrains Mono', 'SF Mono', monospace" font-size="11">JANUARY 1, 2026</text>
  </g>

  <!-- === HUD: Top-right metrics panel === -->
  <g transform="translate(1790, 40)">
    <rect x="0" y="0" width="270" height="155" fill="#0a0d14" fill-opacity="0.85" stroke="#06b6d4" stroke-width="1" stroke-opacity="0.25" rx="4"/>
    <!-- Corner brackets -->
    <path d="M0 0 L0 14 M0 0 L14 0" stroke="#06b6d4" stroke-width="2" fill="none"/>
    <path d="M270 0 L270 14 M270 0 L256 0" stroke="#06b6d4" stroke-width="2" fill="none"/>
    <path d="M0 155 L0 141 M0 155 L14 155" stroke="#06b6d4" stroke-width="2" fill="none"/>
    <path d="M270 155 L270 141 M270 155 L256 155" stroke="#06b6d4" stroke-width="2" fill="none"/>

    <text x="14" y="26" fill="#9ca3af" font-family="'JetBrains Mono', 'SF Mono', monospace" font-size="9" letter-spacing="1.5">PERFORMANCE METRICS</text>
    <line x1="14" y1="34" x2="256" y2="34" stroke="#06b6d4" stroke-width="0.5" opacity="0.25"/>

    <text x="14" y="58" fill="#9ca3af" font-family="'JetBrains Mono', 'SF Mono', monospace" font-size="10">LATENCY</text>
    <text x="170" y="58" fill="#10b981" font-family="'JetBrains Mono', 'SF Mono', monospace" font-size="13" font-weight="600">&lt; 5ms</text>

    <text x="14" y="82" fill="#9ca3af" font-family="'JetBrains Mono', 'SF Mono', monospace" font-size="10">CONFIDENCE</text>
    <text x="170" y="82" fill="#06b6d4" font-family="'JetBrains Mono', 'SF Mono', monospace" font-size="13" font-weight="600">95%</text>

    <text x="14" y="106" fill="#9ca3af" font-family="'JetBrains Mono', 'SF Mono', monospace" font-size="10">RUST CORE</text>
    <text x="170" y="106" fill="#fbbf24" font-family="'JetBrains Mono', 'SF Mono', monospace" font-size="13" font-weight="600">ACTIVE</text>

    <text x="14" y="130" fill="#9ca3af" font-family="'JetBrains Mono', 'SF Mono', monospace" font-size="10">VALIDATION</text>
    <text x="170" y="130" fill="#10b981" font-family="'JetBrains Mono', 'SF Mono', monospace" font-size="13" font-weight="600">PASSED</text>
  </g>

  <!-- === Main tagline === -->
  <g transform="translate(1050, 828)">
    <text x="0" y="0" fill="#f9fafb" font-family="'Inter', -apple-system, sans-serif" font-size="28" font-weight="700" text-anchor="middle" letter-spacing="2" filter="url(#softGlow)">Turn Prompts into Protocols</text>
    <text x="0" y="32" fill="#9ca3af" font-family="'Inter', -apple-system, sans-serif" font-size="13" text-anchor="middle" letter-spacing="3">DESIGNED, NOT DREAMED</text>
  </g>

  <!-- === Bottom-left: Open source badge === -->
  <g transform="translate(40, 820)">
    <rect x="0" y="0" width="175" height="38" fill="#0a0d14" fill-opacity="0.7" stroke="#10b981" stroke-width="1" stroke-opacity="0.45" rx="4"/>
    <text x="14" y="24" fill="#10b981" font-family="'JetBrains Mono', 'SF Mono', monospace" font-size="11" font-weight="600">OPEN SOURCE</text>
    <text x="130" y="24" fill="#9ca3af" font-family="'JetBrains Mono', 'SF Mono', monospace" font-size="10">Apache 2.0</text>
  </g>

  <!-- === Bottom-right: URL === -->
  <g transform="translate(1885, 820)">
    <rect x="0" y="0" width="175" height="38" fill="#0a0d14" fill-opacity="0.7" stroke="#06b6d4" stroke-width="1" stroke-opacity="0.45" rx="4"/>
    <text x="88" y="24" fill="#06b6d4" font-family="'JetBrains Mono', 'SF Mono', monospace" font-size="13" font-weight="600" text-anchor="middle">reasonkit.sh</text>
  </g>

  <!-- Subtle scanline overlay -->
  <g opacity="0.02">
    <defs>
      <pattern id="scanlines" x="0" y="0" width="4" height="4" patternUnits="userSpaceOnUse">
        <line x1="0" y1="0" x2="4" y2="0" stroke="#f9fafb" stroke-width="1"/>
      </pattern>
    </defs>
    <rect width="2100" height="900" fill="url(#scanlines)"/>
  </g>
</svg>
