<svg xmlns="http://www.w3.org/2000/svg" viewBox="0 0 512 512" width="512" height="512"><rect width="100%" height="100%" fill="#03060b" rx="61.44" />
  <g stroke="#00d2ff" stroke-width="7.68" stroke-linecap="round" fill="none">
    <path d="M 391.424 256.0 L 369.7474253038007 286.47853075127284 L 373.2806242821038 323.712 L 339.26889455252785 339.26889455252785 L 323.712 373.2806242821038 L 286.47853075127284 369.7474253038007 L 256.0 391.424 L 225.52146924872716 369.7474253038007 L 188.288 373.2806242821038 L 172.73110544747217 339.26889455252785 L 138.71937571789618 323.712 L 142.2525746961993 286.4785307512729 L 120.576 256.0 L 142.2525746961993 225.52146924872716 L 138.71937571789618 188.28799999999998 L 172.73110544747215 172.73110544747217 L 188.28799999999995 138.7193757178962 L 225.52146924872716 142.2525746961993 L 255.99999999999997 120.576 L 286.4785307512728 142.2525746961993 L 323.712 138.71937571789618 L 339.26889455252785 172.73110544747215 L 373.28062428210376 188.28799999999995 L 369.7474253038007 225.52146924872716 Z" opacity="0.3" />
    <circle cx="256.0" cy="256.0" r="117.76" opacity="0.5" />
    
    <!-- Connections -->
    <path d="M 327.38820608475885 214.784 L 256.0 338.432 L 184.61179391524115 214.784 Z" stroke="#bd34fe" opacity="0.6"/>
    <path d="M 327.38820608475885 297.216 L 184.61179391524115 297.216 L 255.99999999999997 173.56799999999998 Z" stroke="#00d2ff" opacity="0.6"/>
    
    <path d="M 256.0 256.0 L 327.38820608475885 214.784" />
    <path d="M 256.0 256.0 L 256.0 338.432" />
    <path d="M 256.0 256.0 L 184.61179391524115 214.784" />
  </g>
  
  <g fill="#00d2ff">
    <circle cx="256.0" cy="256.0" r="15.36" />
    <circle cx="327.38820608475885" cy="214.784" r="10.24" /><circle cx="327.38820608475885" cy="297.216" r="10.24" /><circle cx="256.0" cy="338.432" r="10.24" /><circle cx="184.61179391524115" cy="297.216" r="10.24" /><circle cx="184.61179391524115" cy="214.784" r="10.24" /><circle cx="255.99999999999997" cy="173.56799999999998" r="10.24" />
  </g>
</svg>